<svg width="27" height="27" viewBox="0 0 27 27" fill="none" xmlns="http://www.w3.org/2000/svg">
<path d="M27 13.4865C27 6.04125 20.952 0 13.5 0C6.048 0 0 6.04125 0 13.4865C0 17.5871 1.863 21.2827 4.779 23.7634C4.806 23.7904 4.833 23.7904 4.833 23.8174C5.076 24.0064 5.319 24.1954 5.589 24.3844C5.724 24.4654 5.832 24.5717 5.967 24.6797C8.19889 26.1904 10.8319 26.9985 13.527 27C16.2221 26.9985 18.8551 26.1904 21.087 24.6797C21.222 24.5987 21.33 24.4924 21.465 24.4097C21.708 24.2224 21.978 24.0334 22.221 23.8444C22.248 23.8174 22.275 23.8174 22.275 23.7904C25.137 21.2811 27 17.5871 27 13.4865ZM13.5 25.3007C10.962 25.3007 8.64 24.4907 6.723 23.1424C6.75 22.9264 6.804 22.7121 6.858 22.4961C7.01942 21.9109 7.25535 21.3488 7.56 20.8237C7.857 20.3108 8.208 19.8517 8.64 19.4468C9.045 19.0417 9.531 18.6654 10.017 18.3684C10.53 18.0714 11.07 17.8554 11.664 17.6934C12.2628 17.5331 12.8801 17.4519 13.5 17.4521C15.3406 17.4382 17.1138 18.1443 18.441 19.4198C19.062 20.0408 19.548 20.7692 19.899 21.6051C20.088 22.0911 20.223 22.6035 20.304 23.1424C18.3114 24.5433 15.9358 25.2968 13.5 25.3007ZM9.369 12.8132C9.13159 12.2683 9.01198 11.6795 9.018 11.0852C9.018 10.4929 9.126 9.89888 9.369 9.35888C9.612 8.81888 9.936 8.33456 10.341 7.92956C10.746 7.52456 11.232 7.20225 11.772 6.95925C12.312 6.71625 12.906 6.60825 13.5 6.60825C14.121 6.60825 14.688 6.71625 15.228 6.95925C15.768 7.20225 16.254 7.52625 16.659 7.92956C17.064 8.33456 17.388 8.82056 17.631 9.35888C17.874 9.89888 17.982 10.4929 17.982 11.0852C17.982 11.7062 17.874 12.2732 17.631 12.8115C17.3978 13.3443 17.0683 13.8294 16.659 14.2425C16.2457 14.6512 15.7606 14.9801 15.228 15.2128C14.1121 15.6704 12.8609 15.6704 11.745 15.2128C11.2124 14.9801 10.7273 14.6512 10.314 14.2425C9.90435 13.8352 9.58271 13.3499 9.369 12.8132ZM21.897 21.7671C21.897 21.7131 21.87 21.6861 21.87 21.6321C21.6049 20.7871 21.2135 19.9872 20.709 19.2594C20.2041 18.5263 19.5841 17.8796 18.873 17.3441C18.3297 16.9353 17.7408 16.591 17.118 16.3181C17.4 16.1295 17.6623 15.9129 17.901 15.6718C18.3035 15.2744 18.6571 14.8303 18.954 14.3488C19.554 13.3672 19.863 12.2355 19.845 11.0852C19.8538 10.2338 19.6884 9.38965 19.359 8.60456C19.0342 7.84798 18.5666 7.16103 17.982 6.58125C17.3968 6.00927 16.7101 5.55144 15.957 5.23125C15.1707 4.90194 14.3254 4.73712 13.473 4.74694C12.6205 4.73765 11.7751 4.90305 10.989 5.23294C10.2277 5.54922 9.53869 6.01716 8.964 6.60825C8.38904 7.19038 7.9308 7.87717 7.614 8.63156C7.28456 9.41665 7.11917 10.2608 7.128 11.1122C7.128 11.7062 7.209 12.2726 7.371 12.8115C7.533 13.3785 7.749 13.8915 8.046 14.3758C8.316 14.8618 8.694 15.2938 9.099 15.6988C9.342 15.9418 9.612 16.1572 9.909 16.3451C9.28344 16.6236 8.6941 16.9772 8.154 17.3981C7.452 17.9381 6.831 18.5844 6.318 19.2864C5.80884 20.0115 5.41704 20.8121 5.157 21.6591C5.13 21.7131 5.13 21.7671 5.13 21.7941C2.997 19.6357 1.674 16.7231 1.674 13.4865C1.674 6.98625 6.993 1.67231 13.5 1.67231C20.007 1.67231 25.326 6.98625 25.326 13.4865C25.3225 16.5914 24.0896 19.5686 21.897 21.7671Z" fill="black"/>
</svg>
