<svg width="66" height="66" viewBox="0 0 66 66" fill="none" xmlns="http://www.w3.org/2000/svg">
<circle cx="33" cy="33" r="33" fill="#F9F5CB"/>
<path d="M23.0738 42.6509C23.139 42.8903 23.25 43.1143 23.4004 43.3102C23.5509 43.506 23.7378 43.6698 23.9506 43.7922C24.1634 43.9147 24.3978 43.9934 24.6405 44.0238C24.8833 44.0542 25.1295 44.0358 25.3652 43.9696C25.6009 43.9034 25.8215 43.7907 26.0143 43.6379C26.2071 43.4851 26.3684 43.2952 26.489 43.0791C26.6095 42.863 26.687 42.6249 26.717 42.3784C26.7469 42.1319 26.7288 41.8818 26.6636 41.6424L23.0738 42.6509ZM12.3839 16.0758C12.1473 16.0056 11.8993 15.9839 11.6543 16.0118C11.4093 16.0397 11.1722 16.1168 10.9568 16.2385C10.7414 16.3602 10.5519 16.5241 10.3993 16.7208C10.2468 16.9175 10.1342 17.143 10.0681 17.3842C10.002 17.6254 9.9838 17.8775 10.0144 18.126C10.0451 18.3744 10.124 18.6142 10.2466 18.8314C10.3691 19.0486 10.533 19.239 10.7286 19.3914C10.9242 19.5438 11.1476 19.6552 11.386 19.7192L12.3839 16.0758ZM54.5575 43.8108C54.8 43.7538 55.0287 43.6481 55.2303 43.4999C55.4318 43.3516 55.602 43.1638 55.7309 42.9476C55.8597 42.7314 55.9446 42.4912 55.9805 42.2411C56.0164 41.991 56.0026 41.7362 55.9399 41.4916C55.8771 41.2471 55.7668 41.0178 55.6153 40.8172C55.4638 40.6167 55.2743 40.4491 55.058 40.3242C54.8416 40.1994 54.6028 40.1198 54.3557 40.0903C54.1086 40.0608 53.8581 40.0818 53.6191 40.1523L54.5575 43.8108ZM29.7544 48.4349C30.524 51.2588 28.8358 54.2416 25.8468 55.0308L26.7827 58.6893C31.6908 57.3958 34.6897 52.3808 33.3441 47.4264L29.7544 48.4349ZM25.8468 55.0308C22.838 55.825 19.8192 54.05 19.0446 51.2008L15.4549 52.2094C16.7954 57.1386 21.8946 59.9802 26.7827 58.6893L25.8468 55.0308ZM19.0446 51.2008C18.275 48.3769 19.9632 45.3942 22.9522 44.605L22.0162 40.949C17.1082 42.2425 14.1068 47.2549 15.4549 52.2094L19.0446 51.2008ZM22.9522 44.605C25.961 43.8108 28.9798 45.5858 29.7544 48.4349L33.3441 47.4264C32.0036 42.4971 26.9044 39.6556 22.0162 40.9465L22.9522 44.605ZM26.6636 41.6424L21.3211 22.001L17.7314 23.0096L23.0738 42.6509L26.6636 41.6424ZM16.6142 17.2659L12.3839 16.0758L11.386 19.7192L15.6187 20.9118L16.6142 17.2659ZM21.3211 22.001C21.0055 20.8664 20.4061 19.834 19.5813 19.0043C18.7565 18.1745 17.7344 17.5757 16.6142 17.2659L15.6237 20.9118C16.6788 21.2093 17.4632 22.0237 17.7314 23.0096L21.3211 22.001ZM32.0209 49.7611L54.5575 43.8108L53.6216 40.1523L31.0825 46.1027L32.0209 49.7611Z" fill="black"/>
<path d="M28.3164 26.2876C27.1001 21.9114 26.4932 19.7221 27.5264 17.999C28.5572 16.2735 30.8269 15.6875 35.3663 14.513L40.1815 13.2712C44.7209 12.0992 46.9906 11.5108 48.7787 12.5057C50.5669 13.5031 51.1763 15.69 52.3902 20.0687L53.6818 24.7117C54.8981 29.0879 55.5076 31.2772 54.4743 33.0028C53.441 34.7258 51.1713 35.3143 46.6319 36.4863L41.8167 37.7306C37.2773 38.9025 35.0076 39.4885 33.2195 38.4936C31.4313 37.4962 30.8244 35.3093 29.608 30.9331L28.3164 26.2876Z" stroke="black" stroke-width="4"/>
</svg>
