<svg width="183" height="53" viewBox="0 0 183 53" fill="none" xmlns="http://www.w3.org/2000/svg">
<rect width="183" height="53" rx="10" fill="#F9F5CB"/>
<path d="M42 28.4196C40.4971 28.4196 39.0558 29.0244 37.9931 30.1009C36.9304 31.1773 36.3333 32.6374 36.3333 34.1597C36.3333 35.6821 36.9304 37.1421 37.9931 38.2186C39.0558 39.2951 40.4971 39.8999 42 39.8999C43.5029 39.8999 44.9442 39.2951 46.0069 38.2186C47.0696 37.1421 47.6667 35.6821 47.6667 34.1597C47.6667 32.6374 47.0696 31.1773 46.0069 30.1009C44.9442 29.0244 43.5029 28.4196 42 28.4196ZM39.5714 34.1597C39.5714 33.5073 39.8273 32.8816 40.2827 32.4202C40.7382 31.9589 41.3559 31.6997 42 31.6997C42.6441 31.6997 43.2618 31.9589 43.7173 32.4202C44.1727 32.8816 44.4286 33.5073 44.4286 34.1597C44.4286 34.8122 44.1727 35.4379 43.7173 35.8993C43.2618 36.3606 42.6441 36.6198 42 36.6198C41.3559 36.6198 40.7382 36.3606 40.2827 35.8993C39.8273 35.4379 39.5714 34.8122 39.5714 34.1597Z" fill="black"/>
<path d="M50.9469 16.3096L45.7999 9L26.8749 24.3147L25.8257 24.3032V24.3196H25V44H59V24.3196H57.4425L54.3436 15.137L50.9469 16.3096ZM54.0214 24.3196H37.7856L49.8783 20.144L52.3425 19.3453L54.0214 24.3196ZM47.7476 17.415L35.2648 21.725L45.1507 13.7249L47.7476 17.415ZM28.2381 37.717V30.5993C28.9216 30.3549 29.5425 29.9587 30.0552 29.4396C30.5678 28.9206 30.9593 28.2919 31.201 27.5996H52.799C53.0405 28.2922 53.4319 28.9212 53.9446 29.4406C54.4572 29.9599 55.0782 30.3564 55.7619 30.6009V37.7187C55.0782 37.9632 54.4572 38.3597 53.9446 38.879C53.4319 39.3984 53.0405 40.0274 52.799 40.7199H31.2042C30.9616 40.0273 30.5695 39.3983 30.0563 38.8788C29.5432 38.3593 28.922 37.9624 28.2381 37.717Z" fill="black"/>
<path d="M93.7339 33H91.9834V28.4443H87.0396V33H85.2964V22.4971H87.0396V26.9136H91.9834V22.4971H93.7339V33ZM101.893 33H100.245V31.8281H100.216C99.6982 32.7266 98.939 33.1758 97.938 33.1758C97.2007 33.1758 96.6221 32.9756 96.2021 32.5752C95.7871 32.1748 95.5796 31.645 95.5796 30.9858C95.5796 29.5698 96.395 28.7446 98.0259 28.5103L100.252 28.1953C100.252 27.126 99.7446 26.5913 98.729 26.5913C97.8354 26.5913 97.0298 26.8989 96.312 27.5142V26.0273C97.103 25.5586 98.0161 25.3242 99.0513 25.3242C100.946 25.3242 101.893 26.2568 101.893 28.1221V33ZM100.252 29.3159L98.6777 29.5356C98.1895 29.5991 97.8208 29.7188 97.5718 29.8945C97.3276 30.0654 97.2056 30.3682 97.2056 30.8027C97.2056 31.1201 97.3179 31.3813 97.5425 31.5864C97.772 31.7866 98.0771 31.8867 98.458 31.8867C98.9756 31.8867 99.4028 31.7061 99.7397 31.3447C100.082 30.9785 100.252 30.5195 100.252 29.9678V29.3159ZM110.177 33H108.47V26.7964H106.939C106.725 29.1157 106.356 30.7466 105.833 31.689C105.316 32.6265 104.618 33.0952 103.739 33.0952C103.446 33.0952 103.194 33.0537 102.984 32.9707V31.7036C103.155 31.7866 103.338 31.8281 103.534 31.8281C104.583 31.8281 105.257 29.7188 105.555 25.5H110.177V33ZM119.208 33H117.669V27.4995C117.572 27.6948 117.423 27.9658 117.223 28.3125L114.066 33H112.396V25.5H113.956V30.8906C114.01 30.7637 114.125 30.5439 114.3 30.2314L117.501 25.5H119.208V33ZM127.931 33H126.231V30.1729C125.377 30.6367 124.591 30.8687 123.873 30.8687C122.184 30.8687 121.339 29.9507 121.339 28.1147V25.5H123.001V27.8804C123.001 28.9399 123.417 29.4697 124.247 29.4697C124.862 29.4697 125.523 29.2866 126.231 28.9204V25.5H127.931V33ZM136.83 33H135.123V29.7188H131.856V33H130.15V25.5H131.856V28.4443H135.123V25.5H136.83V33ZM148.175 33H146.476V25.5H148.175V33ZM139.042 33V25.5H140.741V28.2686H142.792C143.568 28.2686 144.186 28.4736 144.645 28.8838C145.104 29.2891 145.333 29.8555 145.333 30.583C145.333 31.3301 145.094 31.9209 144.615 32.3555C144.142 32.7852 143.543 33 142.821 33H139.042ZM140.741 29.4917V31.7769H142.293C143.153 31.7769 143.583 31.3838 143.583 30.5977C143.583 29.8604 143.148 29.4917 142.279 29.4917H140.741ZM156.744 29.7114H151.632C151.651 30.4048 151.864 30.9395 152.269 31.3154C152.679 31.6914 153.241 31.8794 153.954 31.8794C154.754 31.8794 155.489 31.6401 156.158 31.1616V32.5312C155.475 32.9609 154.571 33.1758 153.448 33.1758C152.345 33.1758 151.478 32.8364 150.848 32.1577C150.223 31.4741 149.911 30.5146 149.911 29.2793C149.911 28.1123 150.255 27.1626 150.943 26.4302C151.637 25.6929 152.496 25.3242 153.521 25.3242C154.547 25.3242 155.34 25.6538 155.902 26.313C156.463 26.9722 156.744 27.8877 156.744 29.0596V29.7114ZM155.104 28.5103C155.099 27.8999 154.955 27.4263 154.671 27.0894C154.388 26.7476 153.998 26.5767 153.5 26.5767C153.011 26.5767 152.596 26.7549 152.254 27.1113C151.917 27.4678 151.71 27.9341 151.632 28.5103H155.104Z" fill="black"/>
</svg>
