<svg width="66" height="66" viewBox="0 0 66 66" fill="none" xmlns="http://www.w3.org/2000/svg">
<circle cx="33" cy="33" r="33" fill="#F9F5CB"/>
<path d="M28.4074 40.074L34.1852 42C34.1852 42 48.6296 39.1111 50.5556 39.1111C52.4815 39.1111 52.4815 41.037 50.5556 42.9629C48.6296 44.8889 41.8889 50.6666 36.1111 50.6666C30.3333 50.6666 26.4815 47.7778 22.6296 47.7778H13" stroke="black" stroke-width="4" stroke-linecap="round" stroke-linejoin="round"/>
<path d="M13 36.2222C14.9259 34.2963 18.7778 31.4074 22.6296 31.4074C26.4815 31.4074 35.6296 35.2593 37.0741 37.1852C38.5185 39.1111 34.1852 42 34.1852 42M24.5556 25.6296V17.9259C24.5556 17.4151 24.7585 16.9253 25.1196 16.5641C25.4808 16.2029 25.9707 16 26.4815 16H49.5926C50.1034 16 50.5932 16.2029 50.9544 16.5641C51.3156 16.9253 51.5185 17.4151 51.5185 17.9259V33.3333" stroke="black" stroke-width="4" stroke-linecap="round" stroke-linejoin="round"/>
<path d="M33.2222 16H42.8519V24.6667H33.2222V16Z" stroke="black" stroke-width="4" stroke-linecap="round" stroke-linejoin="round"/>
</svg>
