<svg width="195" height="53" viewBox="0 0 195 53" fill="none" xmlns="http://www.w3.org/2000/svg">
<rect width="195" height="53" rx="10" fill="#F9F5CB"/>
<path d="M47.275 33.75L51.994 36.5667L50.7565 38.6L44.8 35V26.6667H47.275V33.75ZM58 33.3333C58 39.7833 52.8355 45 46.45 45C44.5866 45.0015 42.7505 44.5475 41.0984 43.6768C39.4463 42.8062 38.0273 41.5447 36.9625 40C30.247 39.65 25 36.8 25 33.3333V28.3333C25 31.4667 29.257 34.0667 34.999 34.8C34.9495 34.3167 34.9 33.8333 34.9 33.3333C34.9 32.7 34.966 32.0833 35.065 31.4667C29.29 30.75 25 28.1333 25 25V20C25 23.4833 30.28 26.3333 36.9955 26.6667C37.9855 25.2333 39.256 24.0667 40.7245 23.2167C39.916 23.2833 39.025 23.3333 38.2 23.3333C30.907 23.3333 25 20.35 25 16.6667C25 12.9833 30.907 10 38.2 10C45.493 10 51.4 12.9833 51.4 16.6667C51.4 18.6667 49.6345 20.4667 46.8625 21.6667C48.1 21.7333 49.3375 21.9833 50.476 22.4167C51.0535 21.6667 51.4 20.8333 51.4 20V22.8C55.294 24.6833 58 28.6833 58 33.3333ZM54.7 33.3333C54.7 28.7333 51.004 25 46.45 25C41.896 25 38.2 28.7333 38.2 33.3333C38.2 37.9333 41.896 41.6667 46.45 41.6667C51.004 41.6667 54.7 37.9333 54.7 33.3333Z" fill="black"/>
<path d="M84.2964 33V22.4971H87.6289C88.6445 22.4971 89.4478 22.7192 90.0386 23.1636C90.6343 23.6079 90.9321 24.1865 90.9321 24.8994C90.9321 25.4951 90.7637 26.0127 90.4268 26.4521C90.0898 26.8916 89.6235 27.2041 89.0278 27.3896V27.4189C89.7505 27.502 90.3267 27.7705 90.7563 28.2246C91.1909 28.6738 91.4082 29.2598 91.4082 29.9824C91.4082 30.8809 91.0542 31.6084 90.3462 32.165C89.6382 32.7217 88.7446 33 87.6655 33H84.2964ZM86.0322 23.896V26.8843H87.1602C87.7656 26.8843 88.2393 26.7427 88.5811 26.4595C88.9277 26.1714 89.1011 25.7661 89.1011 25.2437C89.1011 24.3452 88.5005 23.896 87.2993 23.896H86.0322ZM86.0322 28.2832V31.6084H87.519C88.1685 31.6084 88.6689 31.4595 89.0205 31.1616C89.377 30.8589 89.5552 30.4438 89.5552 29.9165C89.5552 28.8276 88.8008 28.2832 87.292 28.2832H86.0322ZM99.0327 31.894H99.0034V36.4497H97.3042V25.5H99.0034V26.8184H99.0327C99.6138 25.8223 100.463 25.3242 101.582 25.3242C102.534 25.3242 103.276 25.6587 103.808 26.3276C104.34 26.9966 104.606 27.895 104.606 29.0229C104.606 30.2729 104.306 31.2739 103.706 32.0259C103.105 32.7778 102.285 33.1538 101.245 33.1538C100.288 33.1538 99.5503 32.7339 99.0327 31.894ZM98.9888 28.9351V29.8652C98.9888 30.4121 99.1621 30.876 99.5088 31.2568C99.8604 31.6377 100.305 31.8281 100.842 31.8281C101.472 31.8281 101.965 31.584 102.321 31.0957C102.683 30.6025 102.863 29.9165 102.863 29.0376C102.863 28.3003 102.695 27.7241 102.358 27.3091C102.026 26.8892 101.574 26.6792 101.003 26.6792C100.397 26.6792 99.9092 26.894 99.5381 27.3237C99.1719 27.7534 98.9888 28.2905 98.9888 28.9351ZM111.923 33H110.275V31.8281H110.246C109.729 32.7266 108.969 33.1758 107.968 33.1758C107.231 33.1758 106.652 32.9756 106.232 32.5752C105.817 32.1748 105.61 31.645 105.61 30.9858C105.61 29.5698 106.425 28.7446 108.056 28.5103L110.283 28.1953C110.283 27.126 109.775 26.5913 108.759 26.5913C107.866 26.5913 107.06 26.8989 106.342 27.5142V26.0273C107.133 25.5586 108.046 25.3242 109.082 25.3242C110.976 25.3242 111.923 26.2568 111.923 28.1221V33ZM110.283 29.3159L108.708 29.5356C108.22 29.5991 107.851 29.7188 107.602 29.8945C107.358 30.0654 107.236 30.3682 107.236 30.8027C107.236 31.1201 107.348 31.3813 107.573 31.5864C107.802 31.7866 108.107 31.8867 108.488 31.8867C109.006 31.8867 109.433 31.7061 109.77 31.3447C110.112 30.9785 110.283 30.5195 110.283 29.9678V29.3159ZM119.372 32.6558C118.771 33.0024 118.061 33.1758 117.241 33.1758C116.127 33.1758 115.229 32.8291 114.545 32.1357C113.862 31.4375 113.52 30.5342 113.52 29.4258C113.52 28.1904 113.886 27.1992 114.619 26.4521C115.356 25.7002 116.34 25.3242 117.57 25.3242C118.254 25.3242 118.857 25.4438 119.379 25.6831V27.2651C118.857 26.8745 118.3 26.6792 117.709 26.6792C116.992 26.6792 116.403 26.9233 115.944 27.4116C115.485 27.895 115.256 28.5298 115.256 29.3159C115.256 30.0923 115.471 30.7051 115.9 31.1543C116.335 31.6035 116.916 31.8281 117.644 31.8281C118.254 31.8281 118.83 31.6108 119.372 31.1763V32.6558ZM126.433 32.6558C125.832 33.0024 125.122 33.1758 124.301 33.1758C123.188 33.1758 122.29 32.8291 121.606 32.1357C120.922 31.4375 120.581 30.5342 120.581 29.4258C120.581 28.1904 120.947 27.1992 121.679 26.4521C122.417 25.7002 123.4 25.3242 124.631 25.3242C125.314 25.3242 125.917 25.4438 126.44 25.6831V27.2651C125.917 26.8745 125.361 26.6792 124.77 26.6792C124.052 26.6792 123.464 26.9233 123.005 27.4116C122.546 27.895 122.316 28.5298 122.316 29.3159C122.316 30.0923 122.531 30.7051 122.961 31.1543C123.396 31.6035 123.977 31.8281 124.704 31.8281C125.314 31.8281 125.891 31.6108 126.433 31.1763V32.6558ZM129.853 31.894H129.824V36.4497H128.125V25.5H129.824V26.8184H129.853C130.434 25.8223 131.284 25.3242 132.402 25.3242C133.354 25.3242 134.096 25.6587 134.628 26.3276C135.161 26.9966 135.427 27.895 135.427 29.0229C135.427 30.2729 135.126 31.2739 134.526 32.0259C133.925 32.7778 133.105 33.1538 132.065 33.1538C131.108 33.1538 130.371 32.7339 129.853 31.894ZM129.809 28.9351V29.8652C129.809 30.4121 129.982 30.876 130.329 31.2568C130.681 31.6377 131.125 31.8281 131.662 31.8281C132.292 31.8281 132.785 31.584 133.142 31.0957C133.503 30.6025 133.684 29.9165 133.684 29.0376C133.684 28.3003 133.515 27.7241 133.178 27.3091C132.846 26.8892 132.395 26.6792 131.823 26.6792C131.218 26.6792 130.729 26.894 130.358 27.3237C129.992 27.7534 129.809 28.2905 129.809 28.9351ZM140.488 33.1758C139.331 33.1758 138.405 32.8267 137.712 32.1284C137.023 31.4253 136.679 30.4951 136.679 29.3379C136.679 28.0781 137.038 27.0942 137.756 26.3862C138.479 25.6782 139.45 25.3242 140.671 25.3242C141.843 25.3242 142.756 25.6685 143.41 26.3569C144.064 27.0454 144.392 28 144.392 29.2207C144.392 30.417 144.038 31.3765 143.33 32.0991C142.626 32.8169 141.679 33.1758 140.488 33.1758ZM140.568 26.6792C139.904 26.6792 139.379 26.9111 138.994 27.375C138.608 27.8389 138.415 28.4785 138.415 29.2939C138.415 30.0801 138.61 30.7002 139.001 31.1543C139.392 31.6035 139.914 31.8281 140.568 31.8281C141.237 31.8281 141.75 31.606 142.106 31.1616C142.468 30.7173 142.648 30.085 142.648 29.2646C142.648 28.4395 142.468 27.8022 142.106 27.353C141.75 26.9038 141.237 26.6792 140.568 26.6792ZM152.624 33H150.925V30.1729C150.07 30.6367 149.284 30.8687 148.566 30.8687C146.877 30.8687 146.032 29.9507 146.032 28.1147V25.5H147.695V27.8804C147.695 28.9399 148.11 29.4697 148.94 29.4697C149.555 29.4697 150.217 29.2866 150.925 28.9204V25.5H152.624V33ZM161.655 33H159.494L156.579 29.3452H156.55V33H154.843V25.5H156.55V28.9497H156.579L159.333 25.5H161.413L158.293 29.0742L161.655 33ZM169.221 25.5L165.837 34.2012C165.134 35.7539 164.147 36.5303 162.878 36.5303C162.521 36.5303 162.224 36.4985 161.984 36.4351V35.0215C162.253 35.1094 162.497 35.1533 162.717 35.1533C163.352 35.1533 163.825 34.8408 164.138 34.2158L164.643 32.9854L161.662 25.5H163.544L165.332 30.9492C165.351 31.0176 165.395 31.1982 165.463 31.4912H165.5C165.524 31.3789 165.568 31.2031 165.632 30.9639L167.507 25.5H169.221Z" fill="black"/>
</svg>
