<svg width="247" height="53" viewBox="0 0 247 53" fill="none" xmlns="http://www.w3.org/2000/svg">
<rect width="247" height="53" rx="10" fill="#F9F5CB"/>
<path d="M86.2964 33V22.4971H92.4268V23.9839H88.0396V26.855H90.0464C91.1206 26.855 91.9556 27.1089 92.5513 27.6167C93.1519 28.1245 93.4521 28.8447 93.4521 29.7773C93.4521 30.7734 93.1323 31.5596 92.4927 32.1357C91.8579 32.7119 90.9912 33 89.8926 33H86.2964ZM88.0396 28.2393V31.6084H89.6143C90.2539 31.6084 90.7471 31.457 91.0938 31.1543C91.4404 30.8516 91.6138 30.4292 91.6138 29.8872C91.6138 28.7886 90.957 28.2393 89.6436 28.2393H88.0396ZM100.916 33H99.2676V31.8281H99.2383C98.7207 32.7266 97.9614 33.1758 96.9604 33.1758C96.2231 33.1758 95.6445 32.9756 95.2246 32.5752C94.8096 32.1748 94.6021 31.645 94.6021 30.9858C94.6021 29.5698 95.4175 28.7446 97.0483 28.5103L99.2749 28.1953C99.2749 27.126 98.7671 26.5913 97.7515 26.5913C96.8579 26.5913 96.0522 26.8989 95.3345 27.5142V26.0273C96.1255 25.5586 97.0386 25.3242 98.0737 25.3242C99.9683 25.3242 100.916 26.2568 100.916 28.1221V33ZM99.2749 29.3159L97.7002 29.5356C97.2119 29.5991 96.8433 29.7188 96.5942 29.8945C96.3501 30.0654 96.228 30.3682 96.228 30.8027C96.228 31.1201 96.3403 31.3813 96.5649 31.5864C96.7944 31.7866 97.0996 31.8867 97.4805 31.8867C97.998 31.8867 98.4253 31.7061 98.7622 31.3447C99.104 30.9785 99.2749 30.5195 99.2749 29.9678V29.3159ZM109.675 33H107.969V29.7188H104.702V33H102.996V25.5H104.702V28.4443H107.969V25.5H109.675V33ZM118.699 33H116.538L113.623 29.3452H113.594V33H111.887V25.5H113.594V28.9497H113.623L116.377 25.5H118.457L115.337 29.0742L118.699 33ZM122.815 33.1758C121.658 33.1758 120.732 32.8267 120.039 32.1284C119.351 31.4253 119.006 30.4951 119.006 29.3379C119.006 28.0781 119.365 27.0942 120.083 26.3862C120.806 25.6782 121.777 25.3242 122.998 25.3242C124.17 25.3242 125.083 25.6685 125.737 26.3569C126.392 27.0454 126.719 28 126.719 29.2207C126.719 30.417 126.365 31.3765 125.657 32.0991C124.954 32.8169 124.006 33.1758 122.815 33.1758ZM122.896 26.6792C122.231 26.6792 121.707 26.9111 121.321 27.375C120.935 27.8389 120.742 28.4785 120.742 29.2939C120.742 30.0801 120.938 30.7002 121.328 31.1543C121.719 31.6035 122.241 31.8281 122.896 31.8281C123.564 31.8281 124.077 31.606 124.434 31.1616C124.795 30.7173 124.976 30.085 124.976 29.2646C124.976 28.4395 124.795 27.8022 124.434 27.353C124.077 26.9038 123.564 26.6792 122.896 26.6792ZM128.455 33V25.5H132.036C132.842 25.5 133.479 25.6636 133.948 25.9907C134.417 26.3179 134.651 26.7646 134.651 27.3311C134.651 28.2881 134.16 28.8691 133.179 29.0742C134.346 29.2207 134.929 29.7969 134.929 30.8027C134.929 31.4229 134.683 31.9453 134.189 32.3701C133.696 32.79 133.083 33 132.351 33H128.455ZM130.154 26.7012V28.5688H131.655C132.505 28.5688 132.93 28.2393 132.93 27.5801C132.93 26.9941 132.559 26.7012 131.816 26.7012H130.154ZM130.154 29.748V31.7915H131.897C132.766 31.7915 133.201 31.4399 133.201 30.7368C133.201 30.0776 132.729 29.748 131.787 29.748H130.154ZM142.114 32.6558C141.514 33.0024 140.803 33.1758 139.983 33.1758C138.87 33.1758 137.971 32.8291 137.288 32.1357C136.604 31.4375 136.262 30.5342 136.262 29.4258C136.262 28.1904 136.628 27.1992 137.361 26.4521C138.098 25.7002 139.082 25.3242 140.312 25.3242C140.996 25.3242 141.599 25.4438 142.122 25.6831V27.2651C141.599 26.8745 141.042 26.6792 140.452 26.6792C139.734 26.6792 139.146 26.9233 138.687 27.4116C138.228 27.895 137.998 28.5298 137.998 29.3159C137.998 30.0923 138.213 30.7051 138.643 31.1543C139.077 31.6035 139.658 31.8281 140.386 31.8281C140.996 31.8281 141.572 31.6108 142.114 31.1763V32.6558ZM150.618 33H148.457L145.542 29.3452H145.513V33H143.806V25.5H145.513V28.9497H145.542L148.296 25.5H150.376L147.256 29.0742L150.618 33ZM154.734 33.1758C153.577 33.1758 152.651 32.8267 151.958 32.1284C151.27 31.4253 150.925 30.4951 150.925 29.3379C150.925 28.0781 151.284 27.0942 152.002 26.3862C152.725 25.6782 153.696 25.3242 154.917 25.3242C156.089 25.3242 157.002 25.6685 157.656 26.3569C158.311 27.0454 158.638 28 158.638 29.2207C158.638 30.417 158.284 31.3765 157.576 32.0991C156.873 32.8169 155.925 33.1758 154.734 33.1758ZM154.814 26.6792C154.15 26.6792 153.625 26.9111 153.24 27.375C152.854 27.8389 152.661 28.4785 152.661 29.2939C152.661 30.0801 152.856 30.7002 153.247 31.1543C153.638 31.6035 154.16 31.8281 154.814 31.8281C155.483 31.8281 155.996 31.606 156.353 31.1616C156.714 30.7173 156.895 30.085 156.895 29.2646C156.895 28.4395 156.714 27.8022 156.353 27.353C155.996 26.9038 155.483 26.6792 154.814 26.6792ZM167.185 33H165.647V27.4995C165.549 27.6948 165.4 27.9658 165.2 28.3125L162.043 33H160.374V25.5H161.934V30.8906C161.987 30.7637 162.102 30.5439 162.278 30.2314L165.479 25.5H167.185V33ZM166.694 21.8892C166.616 22.6216 166.313 23.2002 165.786 23.625C165.264 24.0449 164.607 24.2549 163.816 24.2549C163.005 24.2549 162.344 24.0449 161.831 23.625C161.323 23.2002 161.045 22.6216 160.996 21.8892H162.41C162.478 22.7778 162.954 23.2222 163.838 23.2222C164.229 23.2222 164.551 23.105 164.805 22.8706C165.063 22.6362 165.222 22.3091 165.281 21.8892H166.694ZM180.354 33H178.193L175.278 29.3452H175.249V33H173.542V25.5H175.249V28.9497H175.278L178.032 25.5H180.112L176.992 29.0742L180.354 33ZM187.18 33H185.532V31.8281H185.503C184.985 32.7266 184.226 33.1758 183.225 33.1758C182.488 33.1758 181.909 32.9756 181.489 32.5752C181.074 32.1748 180.867 31.645 180.867 30.9858C180.867 29.5698 181.682 28.7446 183.313 28.5103L185.54 28.1953C185.54 27.126 185.032 26.5913 184.016 26.5913C183.123 26.5913 182.317 26.8989 181.599 27.5142V26.0273C182.39 25.5586 183.303 25.3242 184.338 25.3242C186.233 25.3242 187.18 26.2568 187.18 28.1221V33ZM185.54 29.3159L183.965 29.5356C183.477 29.5991 183.108 29.7188 182.859 29.8945C182.615 30.0654 182.493 30.3682 182.493 30.8027C182.493 31.1201 182.605 31.3813 182.83 31.5864C183.059 31.7866 183.364 31.8867 183.745 31.8867C184.263 31.8867 184.69 31.7061 185.027 31.3447C185.369 30.9785 185.54 30.5195 185.54 29.9678V29.3159ZM190.989 31.894H190.959V36.4497H189.26V25.5H190.959V26.8184H190.989C191.57 25.8223 192.419 25.3242 193.538 25.3242C194.49 25.3242 195.232 25.6587 195.764 26.3276C196.296 26.9966 196.562 27.895 196.562 29.0229C196.562 30.2729 196.262 31.2739 195.662 32.0259C195.061 32.7778 194.241 33.1538 193.201 33.1538C192.244 33.1538 191.506 32.7339 190.989 31.894ZM190.945 28.9351V29.8652C190.945 30.4121 191.118 30.876 191.465 31.2568C191.816 31.6377 192.261 31.8281 192.798 31.8281C193.428 31.8281 193.921 31.584 194.277 31.0957C194.639 30.6025 194.819 29.9165 194.819 29.0376C194.819 28.3003 194.651 27.7241 194.314 27.3091C193.982 26.8892 193.53 26.6792 192.959 26.6792C192.354 26.6792 191.865 26.894 191.494 27.3237C191.128 27.7534 190.945 28.2905 190.945 28.9351ZM203.162 26.855H201.023V33H199.316V26.855H197.163V25.5H203.162V26.855ZM207.585 33.1758C206.428 33.1758 205.503 32.8267 204.81 32.1284C204.121 31.4253 203.777 30.4951 203.777 29.3379C203.777 28.0781 204.136 27.0942 204.854 26.3862C205.576 25.6782 206.548 25.3242 207.769 25.3242C208.94 25.3242 209.854 25.6685 210.508 26.3569C211.162 27.0454 211.489 28 211.489 29.2207C211.489 30.417 211.135 31.3765 210.427 32.0991C209.724 32.8169 208.777 33.1758 207.585 33.1758ZM207.666 26.6792C207.002 26.6792 206.477 26.9111 206.091 27.375C205.706 27.8389 205.513 28.4785 205.513 29.2939C205.513 30.0801 205.708 30.7002 206.099 31.1543C206.489 31.6035 207.012 31.8281 207.666 31.8281C208.335 31.8281 208.848 31.606 209.204 31.1616C209.565 30.7173 209.746 30.085 209.746 29.2646C209.746 28.4395 209.565 27.8022 209.204 27.353C208.848 26.9038 208.335 26.6792 207.666 26.6792ZM220.037 33H218.499V27.4995C218.401 27.6948 218.252 27.9658 218.052 28.3125L214.895 33H213.225V25.5H214.785V30.8906C214.839 30.7637 214.954 30.5439 215.129 30.2314L218.33 25.5H220.037V33ZM219.546 21.8892C219.468 22.6216 219.165 23.2002 218.638 23.625C218.115 24.0449 217.458 24.2549 216.667 24.2549C215.857 24.2549 215.195 24.0449 214.683 23.625C214.175 23.2002 213.896 22.6216 213.848 21.8892H215.261C215.33 22.7778 215.806 23.2222 216.689 23.2222C217.08 23.2222 217.402 23.105 217.656 22.8706C217.915 22.6362 218.074 22.3091 218.132 21.8892H219.546Z" fill="black"/>
<path d="M36.0769 32.0556H47.1538M25 22.3333H61M52.6923 32.0556H55.4615M27.7692 14C26.3846 14 25 15.3889 25 16.7778V36.2222C25 37.6111 26.3846 39 27.7692 39H58.2308C59.6154 39 61 37.6111 61 36.2222V16.7778C61 15.3889 59.6154 14 58.2308 14H27.7692Z" stroke="black" stroke-width="3" stroke-linecap="round" stroke-linejoin="round"/>
</svg>
