<svg width="66" height="66" viewBox="0 0 66 66" fill="none" xmlns="http://www.w3.org/2000/svg">
<circle cx="33" cy="33" r="33" fill="#F9F5CB"/>
<path d="M13.0909 15.0501V13C12.5364 13 12.0045 13.216 11.6124 13.6005C11.2203 13.9849 11 14.5064 11 15.0501H13.0909ZM36.0909 15.0501H38.1818C38.1818 14.5064 37.9615 13.9849 37.5694 13.6005C37.1773 13.216 36.6455 13 36.0909 13V15.0501ZM36.0909 27.3505V25.3004C35.5364 25.3004 35.0045 25.5164 34.6124 25.9008C34.2203 26.2853 34 26.8067 34 27.3505H36.0909ZM13.0909 17.1001H36.0909V13H13.0909V17.1001ZM34 15.0501V47.8511H38.1818V15.0501H34ZM15.1818 43.751V15.0501H11V43.751H15.1818ZM36.0909 29.4005H46.5455V25.3004H36.0909V29.4005ZM52.8182 35.5507V43.751H57V35.5507H52.8182ZM38.1818 47.8511V27.3505H34V47.8511H38.1818ZM48.0237 49.3005C47.6316 49.6848 47.0999 49.9007 46.5455 49.9007C45.991 49.9007 45.4593 49.6848 45.0672 49.3005L42.1106 52.1993C43.2869 53.3523 44.8822 54 46.5455 54C48.2088 54 49.804 53.3523 50.9803 52.1993L48.0237 49.3005ZM45.0672 46.4017C45.4593 46.0174 45.991 45.8015 46.5455 45.8015C47.0999 45.8015 47.6316 46.0174 48.0237 46.4017L50.9803 43.5029C49.804 42.3499 48.2088 41.7022 46.5455 41.7022C44.8822 41.7022 43.2869 42.3499 42.1106 43.5029L45.0672 46.4017ZM22.9328 49.3005C22.5407 49.6848 22.009 49.9007 21.4545 49.9007C20.9001 49.9007 20.3684 49.6848 19.9763 49.3005L17.0197 52.1993C18.196 53.3523 19.7912 54 21.4545 54C23.1178 54 24.7131 53.3523 25.8894 52.1993L22.9328 49.3005ZM19.9763 46.4017C20.3684 46.0174 20.9001 45.8015 21.4545 45.8015C22.009 45.8015 22.5407 46.0174 22.9328 46.4017L25.8894 43.5029C24.7131 42.3499 23.1178 41.7022 21.4545 41.7022C19.7912 41.7022 18.196 42.3499 17.0197 43.5029L19.9763 46.4017ZM48.0237 46.4017C48.4335 46.8015 48.6364 47.3242 48.6364 47.8511H52.8182C52.8182 46.2808 52.2055 44.7022 50.9803 43.5029L48.0237 46.4017ZM48.6364 47.8511C48.6362 48.3948 48.4159 48.9161 48.0237 49.3005L50.9803 52.1993C52.1567 51.0462 52.8178 49.4821 52.8182 47.8511H48.6364ZM42.3636 45.8011H36.0909V49.9012H42.3636V45.8011ZM45.0672 49.3005C44.675 48.9161 44.4547 48.3948 44.4545 47.8511H40.2727C40.2727 49.4215 40.8854 51 42.1106 52.1993L45.0672 49.3005ZM44.4545 47.8511C44.4547 47.3074 44.675 46.7861 45.0672 46.4017L42.1106 43.5029C40.9342 44.656 40.2731 46.2201 40.2727 47.8511H44.4545ZM19.9763 49.3005C19.5841 48.9161 19.3638 48.3948 19.3636 47.8511H15.1818C15.1818 49.4215 15.7945 51 17.0197 52.1993L19.9763 49.3005ZM19.3636 47.8511C19.3638 47.3074 19.5841 46.7861 19.9763 46.4017L17.0197 43.5029C15.8433 44.656 15.1822 46.2201 15.1818 47.8511H19.3636ZM36.0909 45.8011H25.6364V49.9012H36.0909V45.8011ZM22.9328 46.4017C23.3426 46.8015 23.5455 47.3242 23.5455 47.8511H27.7273C27.7273 46.2808 27.1146 44.7022 25.8894 43.5029L22.9328 46.4017ZM23.5455 47.8511C23.5453 48.3948 23.325 48.9161 22.9328 49.3005L25.8894 52.1993C27.0658 51.0462 27.7269 49.4821 27.7273 47.8511H23.5455ZM52.8182 43.751C52.8182 44.2947 52.5979 44.8161 52.2058 45.2006C51.8136 45.5851 51.2818 45.8011 50.7273 45.8011V49.9012C52.3909 49.9012 53.9864 49.2532 55.1628 48.0998C56.3391 46.9464 57 45.3821 57 43.751H52.8182ZM46.5455 29.4005C48.2091 29.4005 49.8046 30.0485 50.9809 31.2019C52.1573 32.3553 52.8182 33.9196 52.8182 35.5507H57C57 34.2046 56.7296 32.8717 56.2042 31.6281C55.6788 30.3845 54.9087 29.2545 53.9379 28.3026C52.9671 27.3508 51.8146 26.5958 50.5462 26.0807C49.2778 25.5655 47.9184 25.3004 46.5455 25.3004V29.4005ZM11 43.751C11 45.3821 11.6609 46.9464 12.8372 48.0998C14.0136 49.2532 15.6091 49.9012 17.2727 49.9012V45.8011C16.7182 45.8011 16.1864 45.5851 15.7942 45.2006C15.4021 44.8161 15.1818 44.2947 15.1818 43.751H11Z" fill="black"/>
<path d="M13 23H19M13 32H23" stroke="black" stroke-width="4" stroke-linecap="round" stroke-linejoin="round"/>
</svg>
