<svg width="27" height="27" viewBox="0 0 27 27" fill="none" xmlns="http://www.w3.org/2000/svg">
<path fill-rule="evenodd" clip-rule="evenodd" d="M0 0.964286C0 0.431725 0.431963 0 0.964816 0H5.67698C6.17244 0 6.58737 0.375081 6.63695 0.867787L7.2289 6.75H23.9891C24.4646 6.73265 24.9371 6.83272 25.3649 7.0415C25.7984 7.2531 26.1721 7.56961 26.452 7.96226C26.7194 8.33229 26.8954 8.76033 26.9656 9.2114C27.0361 9.66404 26.9979 10.1269 26.8544 10.562L26.8537 10.5642L24.2872 18.2785L24.2862 18.2815C24.0848 18.8803 23.6929 19.3967 23.1702 19.7519C22.6552 20.102 22.0412 20.2765 21.4194 20.25H9.29035C8.59441 20.2564 7.91938 20.012 7.389 19.5614C6.8571 19.1096 6.50652 18.4808 6.40185 17.791C6.39943 17.775 6.3974 17.759 6.39579 17.7429L5.4051 7.89838C5.39419 7.84198 5.3882 7.78382 5.38759 7.72437L4.80433 1.92857H0.964816C0.431963 1.92857 0 1.49685 0 0.964286ZM7.42298 8.67857L8.31289 17.5217C8.35135 17.7438 8.46653 17.9457 8.63872 18.092C8.81602 18.2426 9.04181 18.3241 9.27449 18.3215L9.28539 18.3214L21.4421 18.3214C21.4589 18.3214 21.4756 18.3219 21.4924 18.3227C21.7028 18.3337 21.911 18.2756 22.0852 18.1572C22.259 18.039 22.3895 17.8674 22.4568 17.6683C22.4569 17.6679 22.457 17.6675 22.4572 17.667L25.0218 9.95803C25.0217 9.95832 25.0219 9.95773 25.0218 9.95803C25.0694 9.81327 25.0823 9.65841 25.0589 9.50784C25.0354 9.35696 24.9764 9.21381 24.8868 9.09017L24.8813 9.08264C24.7879 8.95119 24.663 8.84521 24.5181 8.77446C24.3731 8.70371 24.2127 8.67041 24.0516 8.67761C24.0372 8.67825 24.0229 8.67857 24.0085 8.67857H7.42298ZM12.8899 10.6071C13.4228 10.6071 13.8548 11.0389 13.8548 11.5714V15.4286C13.8548 15.9611 13.4228 16.3929 12.8899 16.3929C12.3571 16.3929 11.9251 15.9611 11.9251 15.4286V11.5714C11.9251 11.0389 12.3571 10.6071 12.8899 10.6071ZM18.6788 10.6071C19.2117 10.6071 19.6437 11.0389 19.6437 11.5714V15.4286C19.6437 15.9611 19.2117 16.3929 18.6788 16.3929C18.146 16.3929 17.714 15.9611 17.714 15.4286V11.5714C17.714 11.0389 18.146 10.6071 18.6788 10.6071ZM7.20697 23.7077C7.56885 23.346 8.05966 23.1429 8.57143 23.1429C9.0832 23.1429 9.57401 23.346 9.93589 23.7077C10.2978 24.0694 10.5011 24.5599 10.5011 25.0714C10.5011 25.5829 10.2978 26.0735 9.93589 26.4351C9.57401 26.7968 9.0832 27 8.57143 27C8.05966 27 7.56885 26.7968 7.20697 26.4351C6.8451 26.0735 6.6418 25.5829 6.6418 25.0714C6.6418 24.5599 6.8451 24.0694 7.20697 23.7077ZM19.7496 23.7077C20.1115 23.346 20.6023 23.1429 21.114 23.1429C21.6258 23.1429 22.1166 23.346 22.4785 23.7077C22.8404 24.0694 23.0437 24.5599 23.0437 25.0714C23.0437 25.5829 22.8404 26.0735 22.4785 26.4351C22.1166 26.7968 21.6258 27 21.114 27C20.6023 27 20.1115 26.7968 19.7496 26.4351C19.3877 26.0735 19.1844 25.5829 19.1844 25.0714C19.1844 24.5599 19.3877 24.0694 19.7496 23.7077Z" fill="black"/>
</svg>
