<svg width="243" height="40" viewBox="0 0 243 40" fill="none" xmlns="http://www.w3.org/2000/svg">
<path d="M231.564 8.61321C232.442 8.11163 233.207 8.04893 233.859 8.42512C234.511 8.80131 234.837 9.49098 234.837 10.4942V29.3035L239.727 26.4821V3.91086L243 2.02992V28.3631L234.837 33.0654C233.984 33.567 233.219 33.6297 232.542 33.2535C231.89 32.8773 231.564 32.1877 231.564 31.1845V12.3751L226.711 15.1965V37.7678L223.438 39.6487V13.3156L231.564 8.61321ZM243 2.02992L239.727 3.91086L236.454 2.02992L239.727 0.148987L243 2.02992ZM239.727 3.91086V26.4821L236.454 24.6012V2.02992L239.727 3.91086ZM239.727 26.4821L234.837 29.3035L231.564 27.4226L236.454 24.6012L239.727 26.4821ZM231.564 12.3751V31.1845C231.564 32.1877 231.89 32.8773 232.542 33.2535L229.307 31.3726C228.655 30.9964 228.329 30.3067 228.329 29.3035V10.4942L231.564 12.3751ZM233.859 8.42512C233.207 8.04893 232.442 8.11163 231.564 8.61321L223.438 13.3156L220.165 11.4346L228.329 6.73227C229.181 6.23069 229.934 6.16799 230.586 6.54418L233.859 8.42512ZM223.438 13.3156V39.6487L220.165 37.7678V11.4346L223.438 13.3156Z" fill="#E3170A"/>
<path d="M202.241 17.0774C202.241 16.4003 202.391 15.6981 202.692 14.9708C202.993 14.2184 203.395 13.5287 203.896 12.9017C204.398 12.2497 204.937 11.7606 205.514 11.4346L216.912 4.85131V8.61319L205.514 15.1965V23.4726L216.912 16.8893V20.6512L205.514 27.2345V35.5106L216.912 28.9273V32.6892L205.514 39.2725C204.636 39.7741 203.871 39.8368 203.219 39.4606C202.567 39.0844 202.241 38.3947 202.241 37.3916V17.0774ZM216.912 28.9273L205.514 35.5106L202.241 33.6297L213.639 27.0464L216.912 28.9273ZM216.912 16.8893L205.514 23.4726L202.241 21.5917L213.639 15.0084L216.912 16.8893ZM216.912 4.85131L205.514 11.4346C204.937 11.7606 204.398 12.2497 203.896 12.9017C203.395 13.5287 202.993 14.2184 202.692 14.9708C202.391 15.6981 202.241 16.4003 202.241 17.0774V37.3916C202.241 38.3947 202.567 39.0844 203.219 39.4606L199.946 37.5797C199.294 37.2035 198.968 36.5138 198.968 35.5106V15.1965C198.968 14.5193 199.119 13.8171 199.419 13.0898C199.72 12.3374 200.122 11.6478 200.623 11.0208C201.125 10.3687 201.664 9.87968 202.241 9.55366L213.639 2.97037L216.912 4.85131Z" fill="#E3170A"/>
<path d="M187.552 38.8963C186.699 39.3979 185.947 39.4606 185.295 39.0844C184.643 38.7082 184.316 38.0185 184.316 37.0154L192.442 32.313V6.73225L195.715 4.85131V26.6702C195.715 27.3223 195.552 28.0245 195.226 28.7769C194.925 29.5292 194.524 30.2315 194.022 30.8835C193.546 31.5105 193.019 31.987 192.442 32.313C192.442 32.9651 192.292 33.6673 191.991 34.4197C191.69 35.1721 191.288 35.8743 190.787 36.5263C190.285 37.1533 189.746 37.6298 189.169 37.9558L187.552 38.8963ZM184.316 37.0154C183.439 37.517 182.674 37.5797 182.022 37.2035C181.37 36.8273 181.044 36.1376 181.044 35.1344V13.3155L184.316 11.4346V37.0154ZM195.715 4.85131L192.442 6.73225L189.169 4.85131L192.442 2.97037L195.715 4.85131ZM192.442 6.73225V32.313L189.169 30.4321V4.85131L192.442 6.73225ZM192.442 32.313L184.316 37.0154L181.044 35.1344L189.169 30.4321L192.442 32.313ZM184.316 37.0154C184.316 38.0185 184.643 38.7082 185.295 39.0844L182.022 37.2035C181.37 36.8273 181.044 36.1376 181.044 35.1344L184.316 37.0154ZM184.316 11.4346L181.044 13.3155L177.771 11.4346L181.044 9.55366L184.316 11.4346ZM181.044 13.3155V35.1344C181.044 36.1376 181.37 36.8273 182.022 37.2035L178.749 35.3225C178.097 34.9463 177.771 34.2567 177.771 33.2535V11.4346L181.044 13.3155Z" fill="#E3170A"/>
<path d="M163.119 9.92987L171.245 5.22752C172.097 4.72594 172.85 4.66324 173.502 5.03943C174.179 5.41562 174.518 6.1053 174.518 7.10846V31.1845L171.245 33.0654V25.5417L163.119 30.244V37.7678L159.846 39.6487V15.5727C159.846 14.8956 159.997 14.1933 160.298 13.466C160.599 12.7137 161 12.024 161.502 11.397C162.003 10.7449 162.542 10.2559 163.119 9.92987ZM171.245 21.7798V8.9894L163.119 13.6918V26.4821L171.245 21.7798ZM171.245 25.5417V33.0654L167.972 31.1845V23.6607L171.245 25.5417ZM171.245 8.9894V21.7798L167.972 19.8989V7.10846L171.245 8.9894ZM171.245 21.7798L163.119 26.4821L159.846 24.6012L167.972 19.8989L171.245 21.7798ZM173.54 5.03943C172.862 4.66324 172.097 4.72594 171.245 5.22752L163.119 9.92987C162.542 10.2559 162.003 10.7449 161.502 11.397C161 12.024 160.599 12.7137 160.298 13.466C159.997 14.1933 159.846 14.8956 159.846 15.5727V39.6487L156.573 37.7678V13.6918C156.573 13.0146 156.724 12.3124 157.025 11.5851C157.326 10.8327 157.727 10.143 158.229 9.51607C158.73 8.86401 159.27 8.37496 159.846 8.04893L167.972 3.34659C168.85 2.845 169.615 2.7823 170.267 3.15849L173.54 5.03943Z" fill="#E3170A"/>
<path d="M141.922 11.4346V22.7202L150.047 18.0179V6.73225L153.32 4.85131V31.1845L150.047 33.0654V21.7798L141.922 26.4821V37.7677L138.649 39.6487V13.3155L141.922 11.4346ZM150.047 21.7798V33.0654L146.775 31.1845V19.8988L150.047 21.7798ZM153.32 4.85131L150.047 6.73225L146.775 4.85131L150.047 2.97037L153.32 4.85131ZM150.047 6.73225V18.0179L146.775 16.1369V4.85131L150.047 6.73225ZM150.047 18.0179L141.922 22.7202L138.649 20.8393L146.775 16.1369L150.047 18.0179ZM141.922 11.4346L138.649 13.3155L135.376 11.4346L138.649 9.55366L141.922 11.4346ZM138.649 13.3155V39.6487L135.376 37.7677V11.4346L138.649 13.3155Z" fill="#E3170A"/>
<path d="M119.078 25.5417L110.952 30.244V37.7678L107.68 39.6487V11.8108L119.078 5.22752C119.931 4.72594 120.683 4.66324 121.335 5.03943C122.012 5.41562 122.351 6.1053 122.351 7.10846V16.137C122.351 16.789 122.188 17.4912 121.862 18.2436C121.561 18.996 121.16 19.6982 120.658 20.3503C120.182 20.9773 119.655 21.4538 119.078 21.7798C119.931 21.2782 120.683 21.2155 121.335 21.5917C122.012 21.9679 122.351 22.6576 122.351 23.6607V31.1845L119.078 33.0654V25.5417ZM119.078 21.7798V8.9894L110.952 13.6918V26.4821L119.078 21.7798ZM119.078 25.5417V33.0654L115.805 31.1845V23.6607L119.078 25.5417ZM121.373 21.5917C120.696 21.2155 119.931 21.2782 119.078 21.7798L115.805 19.8989C116.683 19.3973 117.448 19.3346 118.1 19.7108L121.373 21.5917ZM119.078 8.9894V21.7798L115.805 19.8989V7.10846L119.078 8.9894ZM119.078 21.7798L110.952 26.4821L107.68 24.6012L115.805 19.8989L119.078 21.7798ZM121.373 5.03943C120.696 4.66324 119.931 4.72594 119.078 5.22752L107.68 11.8108L104.407 9.92987L115.805 3.34659C116.683 2.845 117.448 2.7823 118.1 3.15849L121.373 5.03943ZM107.68 11.8108V39.6487L104.407 37.7678V9.92987L107.68 11.8108Z" fill="#E3170A"/>
<path d="M89.7551 9.92987L97.8808 5.22752C98.7335 4.72594 99.4859 4.66324 100.138 5.03943C100.815 5.41562 101.154 6.1053 101.154 7.10846V31.1845L97.8808 33.0654V25.5417L89.7551 30.244V37.7678L86.4823 39.6487V15.5727C86.4823 14.8956 86.6328 14.1933 86.9337 13.466C87.2347 12.7137 87.636 12.024 88.1375 11.397C88.6391 10.7449 89.1783 10.2559 89.7551 9.92987ZM97.8808 21.7798V8.9894L89.7551 13.6918V26.4821L97.8808 21.7798ZM97.8808 25.5417V33.0654L94.608 31.1845V23.6607L97.8808 25.5417ZM97.8808 8.9894V21.7798L94.608 19.8989V7.10846L97.8808 8.9894ZM97.8808 21.7798L89.7551 26.4821L86.4823 24.6012L94.608 19.8989L97.8808 21.7798ZM100.176 5.03943C99.4984 4.66324 98.7335 4.72594 97.8808 5.22752L89.7551 9.92987C89.1783 10.2559 88.6391 10.7449 88.1375 11.397C87.636 12.024 87.2347 12.7137 86.9337 13.466C86.6328 14.1933 86.4823 14.8956 86.4823 15.5727V39.6487L83.2095 37.7678V13.6918C83.2095 13.0146 83.36 12.3124 83.6609 11.5851C83.9619 10.8327 84.3631 10.143 84.8647 9.51607C85.3663 8.86401 85.9055 8.37496 86.4823 8.04893L94.608 3.34659C95.4857 2.845 96.2507 2.7823 96.9027 3.15849L100.176 5.03943Z" fill="#E3170A"/>
<path d="M73.0639 13.6917L67.1954 17.0774V13.3155L82.1677 4.66323V8.42511L76.2991 11.8108V37.7678L73.0639 39.6487V13.6917ZM73.0639 13.6917V39.6487L69.7911 37.7678V11.8108L73.0639 13.6917ZM82.1677 4.66323L67.1954 13.3155L63.9225 11.4346L78.9324 2.78229L82.1677 4.66323ZM67.1954 13.3155V17.0774L63.9225 15.1965V11.4346L67.1954 13.3155Z" fill="#E3170A"/>
<path d="M51.536 32.5011V13.6917L45.6675 17.0774V13.3155L60.6397 4.66323V8.42511L54.7712 11.8108V30.6202L60.6397 27.2345V30.9964L45.6675 39.6487V35.8868L51.536 32.5011ZM51.536 32.5011L45.6675 35.8868L42.3946 34.0059L48.2632 30.6202L51.536 32.5011ZM45.6675 35.8868V39.6487L42.3946 37.7678V34.0059L45.6675 35.8868ZM60.6397 27.2345L54.7712 30.6202L51.536 28.7393L57.4045 25.3536L60.6397 27.2345ZM51.536 13.6917V32.5011L48.2632 30.6202V11.8108L51.536 13.6917ZM60.6397 4.66323L45.6675 13.3155L42.3946 11.4346L57.4045 2.78229L60.6397 4.66323ZM45.6675 13.3155V17.0774L42.3946 15.1965V11.4346L45.6675 13.3155Z" fill="#E3170A"/>
<path d="M35.8686 34.5702L27.7429 39.2725C26.8652 39.7741 26.1002 39.8368 25.4482 39.4606C24.7961 39.0844 24.4701 38.3947 24.4701 37.3916V13.3155L27.7429 11.4346V35.5106L35.8686 30.8083V6.73225L39.1414 4.85131V28.9273C39.1414 29.5794 38.9784 30.2816 38.6524 31.034C38.3514 31.7864 37.9502 32.4886 37.4486 33.1406C36.9721 33.7676 36.4454 34.2441 35.8686 34.5702ZM39.1414 4.85131L35.8686 6.73225L32.5958 4.85131L35.8686 2.97037L39.1414 4.85131ZM35.8686 6.73225V30.8083L32.5958 28.9273V4.85131L35.8686 6.73225ZM35.8686 30.8083L27.7429 35.5106L24.4701 33.6297L32.5958 28.9273L35.8686 30.8083ZM27.7429 11.4346L24.4701 13.3155L21.1973 11.4346L24.4701 9.55366L27.7429 11.4346ZM24.4701 13.3155V37.3916C24.4701 38.3947 24.7961 39.0844 25.4482 39.4606L22.1754 37.5797C21.5233 37.2035 21.1973 36.5138 21.1973 35.5106V11.4346L24.4701 13.3155Z" fill="#E3170A"/>
<path d="M6.54567 9.92987L14.6713 5.22752C15.524 4.72594 16.2764 4.66324 16.9285 5.03943C17.6056 5.41562 17.9442 6.1053 17.9442 7.10846V10.8703L14.6713 12.7513V8.9894L6.54567 13.6918V35.5107L14.6713 30.8083V21.7798L9.78088 24.6012V20.8393L17.9442 16.137V32.6892L14.6713 34.5702V30.8083C14.6713 31.4604 14.5209 32.1626 14.2199 32.915C13.919 33.6673 13.5177 34.3695 13.0161 35.0216C12.5145 35.6486 11.9753 36.1251 11.3985 36.4511L6.54567 39.2725C5.6679 39.7741 4.90298 39.8368 4.25092 39.4606C3.59886 39.0844 3.27283 38.3948 3.27283 37.3916V15.5727C3.27283 14.8956 3.42331 14.1933 3.72426 13.466C4.02521 12.7137 4.42648 12.024 4.92806 11.397C5.42965 10.7449 5.96885 10.2559 6.54567 9.92987ZM14.6713 30.8083V34.5702L11.3985 32.6892V28.9274L14.6713 30.8083ZM14.6713 21.7798V30.8083L11.3985 28.9274V19.8989L14.6713 21.7798ZM14.6713 8.9894V12.7513L11.3985 10.8703V7.10846L14.6713 8.9894ZM17.9442 16.137L9.78088 20.8393L6.54567 18.9584L14.6713 14.256L17.9442 16.137ZM9.78088 20.8393V24.6012L6.54567 22.7203V18.9584L9.78088 20.8393ZM14.6713 30.8083L6.54567 35.5107L3.27283 33.6297L11.3985 28.9274L14.6713 30.8083ZM16.9661 5.03943C16.2889 4.66324 15.524 4.72594 14.6713 5.22752L6.54567 9.92987C5.96885 10.2559 5.42965 10.7449 4.92806 11.397C4.42648 12.024 4.02521 12.7137 3.72426 13.466C3.42331 14.1933 3.27283 14.8956 3.27283 15.5727V37.3916C3.27283 38.3948 3.59886 39.0844 4.25092 39.4606L0.978089 37.5797C0.32603 37.2035 0 36.5138 0 35.5107V13.6918C0 13.0146 0.150475 12.3124 0.451425 11.5851C0.752376 10.8327 1.15364 10.143 1.65523 9.51607C2.15681 8.86401 2.69601 8.37496 3.27283 8.04893L11.3985 3.34659C12.2763 2.845 13.0412 2.7823 13.6932 3.15849L16.9661 5.03943Z" fill="#E3170A"/>
</svg>
