<svg width="243" height="40" viewBox="0 0 243 40" fill="none" xmlns="http://www.w3.org/2000/svg">
<path d="M231.564 8.46423C232.442 7.96264 233.207 7.89994 233.859 8.27613C234.511 8.65232 234.837 9.342 234.837 10.3452V29.1546L239.727 26.3332V3.76188L243 1.88094V28.2141L234.837 32.9164C233.984 33.418 233.219 33.4807 232.542 33.1045C231.89 32.7283 231.564 32.0387 231.564 31.0355V12.2261L226.711 15.0475V37.6188L223.438 39.4997V13.1666L231.564 8.46423ZM243 1.88094L239.727 3.76188L236.454 1.88094L239.727 0L243 1.88094ZM239.727 3.76188V26.3332L236.454 24.4522V1.88094L239.727 3.76188ZM239.727 26.3332L234.837 29.1546L231.564 27.2736L236.454 24.4522L239.727 26.3332ZM231.564 12.2261V31.0355C231.564 32.0387 231.89 32.7283 232.542 33.1045L229.307 31.2236C228.655 30.8474 228.329 30.1577 228.329 29.1546V10.3452L231.564 12.2261ZM233.859 8.27613C233.207 7.89994 232.442 7.96264 231.564 8.46423L223.438 13.1666L220.165 11.2856L228.329 6.58329C229.181 6.0817 229.934 6.019 230.586 6.39519L233.859 8.27613ZM223.438 13.1666V39.4997L220.165 37.6188V11.2856L223.438 13.1666Z" fill="white"/>
<path d="M202.241 16.9283C202.241 16.2512 202.391 15.549 202.692 14.8217C202.993 14.0693 203.395 13.3796 203.896 12.7526C204.398 12.1006 204.937 11.6115 205.514 11.2855L216.912 4.70223V8.46411L205.514 15.0474V23.3235L216.912 16.7402V20.5021L205.514 27.0854V35.3615L216.912 28.7783V32.5401L205.514 39.1234C204.636 39.625 203.871 39.6877 203.219 39.3115C202.567 38.9353 202.241 38.2456 202.241 37.2425V16.9283ZM216.912 28.7783L205.514 35.3615L202.241 33.4806L213.639 26.8973L216.912 28.7783ZM216.912 16.7402L205.514 23.3235L202.241 21.4426L213.639 14.8593L216.912 16.7402ZM216.912 4.70223L205.514 11.2855C204.937 11.6115 204.398 12.1006 203.896 12.7526C203.395 13.3796 202.993 14.0693 202.692 14.8217C202.391 15.549 202.241 16.2512 202.241 16.9283V37.2425C202.241 38.2456 202.567 38.9353 203.219 39.3115L199.946 37.4306C199.294 37.0544 198.968 36.3647 198.968 35.3615V15.0474C198.968 14.3703 199.119 13.668 199.419 12.9407C199.72 12.1884 200.122 11.4987 200.623 10.8717C201.125 10.2197 201.664 9.73061 202.241 9.40458L213.639 2.82129L216.912 4.70223Z" fill="white"/>
<path d="M187.552 38.7472C186.699 39.2488 185.947 39.3115 185.295 38.9353C184.643 38.5591 184.316 37.8695 184.316 36.8663L192.442 32.1639V6.58317L195.715 4.70223V26.5211C195.715 27.1732 195.552 27.8754 195.226 28.6278C194.925 29.3802 194.524 30.0824 194.022 30.7344C193.546 31.3614 193.019 31.8379 192.442 32.1639C192.442 32.816 192.292 33.5182 191.991 34.2706C191.69 35.023 191.288 35.7252 190.787 36.3773C190.285 37.0042 189.746 37.4807 189.169 37.8068L187.552 38.7472ZM184.316 36.8663C183.439 37.3679 182.674 37.4306 182.022 37.0544C181.37 36.6782 181.044 35.9885 181.044 34.9854V13.1665L184.316 11.2855V36.8663ZM195.715 4.70223L192.442 6.58317L189.169 4.70223L192.442 2.82129L195.715 4.70223ZM192.442 6.58317V32.1639L189.169 30.283V4.70223L192.442 6.58317ZM192.442 32.1639L184.316 36.8663L181.044 34.9854L189.169 30.283L192.442 32.1639ZM184.316 36.8663C184.316 37.8695 184.643 38.5591 185.295 38.9353L182.022 37.0544C181.37 36.6782 181.044 35.9885 181.044 34.9854L184.316 36.8663ZM184.316 11.2855L181.044 13.1665L177.771 11.2855L181.044 9.40458L184.316 11.2855ZM181.044 13.1665V34.9854C181.044 35.9885 181.37 36.6782 182.022 37.0544L178.749 35.1735C178.097 34.7973 177.771 34.1076 177.771 33.1044V11.2855L181.044 13.1665Z" fill="white"/>
<path d="M163.119 9.7808L171.245 5.07845C172.097 4.57686 172.85 4.51416 173.502 4.89035C174.179 5.26654 174.518 5.95622 174.518 6.95938V31.0354L171.245 32.9163V25.3926L163.119 30.0949V37.6187L159.846 39.4996V15.4236C159.846 14.7465 159.997 14.0443 160.298 13.317C160.599 12.5646 161 11.8749 161.502 11.2479C162.003 10.5959 162.542 10.1068 163.119 9.7808ZM171.245 21.6307V8.84032L163.119 13.5427V26.3331L171.245 21.6307ZM171.245 25.3926V32.9163L167.972 31.0354V23.5117L171.245 25.3926ZM171.245 8.84032V21.6307L167.972 19.7498V6.95938L171.245 8.84032ZM171.245 21.6307L163.119 26.3331L159.846 24.4521L167.972 19.7498L171.245 21.6307ZM173.54 4.89035C172.862 4.51416 172.097 4.57686 171.245 5.07845L163.119 9.7808C162.542 10.1068 162.003 10.5959 161.502 11.2479C161 11.8749 160.599 12.5646 160.298 13.317C159.997 14.0443 159.846 14.7465 159.846 15.4236V39.4996L156.573 37.6187V13.5427C156.573 12.8655 156.724 12.1633 157.025 11.436C157.326 10.6836 157.727 9.99397 158.229 9.36699C158.73 8.71493 159.27 8.22589 159.846 7.89986L167.972 3.19751C168.85 2.69592 169.615 2.63323 170.267 3.00941L173.54 4.89035Z" fill="white"/>
<path d="M141.922 11.2855V22.5712L150.047 17.8688V6.58317L153.32 4.70223V31.0354L150.047 32.9163V21.6307L141.922 26.333V37.6187L138.649 39.4996V13.1665L141.922 11.2855ZM150.047 21.6307V32.9163L146.775 31.0354V19.7497L150.047 21.6307ZM153.32 4.70223L150.047 6.58317L146.775 4.70223L150.047 2.82129L153.32 4.70223ZM150.047 6.58317V17.8688L146.775 15.9879V4.70223L150.047 6.58317ZM150.047 17.8688L141.922 22.5712L138.649 20.6902L146.775 15.9879L150.047 17.8688ZM141.922 11.2855L138.649 13.1665L135.376 11.2855L138.649 9.40458L141.922 11.2855ZM138.649 13.1665V39.4996L135.376 37.6187V11.2855L138.649 13.1665Z" fill="white"/>
<path d="M119.078 25.3926L110.952 30.0949V37.6187L107.68 39.4996V11.6617L119.078 5.07845C119.931 4.57686 120.683 4.51416 121.335 4.89035C122.012 5.26654 122.351 5.95622 122.351 6.95938V15.9879C122.351 16.64 122.188 17.3422 121.862 18.0945C121.561 18.8469 121.16 19.5491 120.658 20.2012C120.182 20.8282 119.655 21.3047 119.078 21.6307C119.931 21.1291 120.683 21.0664 121.335 21.4426C122.012 21.8188 122.351 22.5085 122.351 23.5117V31.0354L119.078 32.9163V25.3926ZM119.078 21.6307V8.84032L110.952 13.5427V26.3331L119.078 21.6307ZM119.078 25.3926V32.9163L115.805 31.0354V23.5117L119.078 25.3926ZM121.373 21.4426C120.696 21.0664 119.931 21.1291 119.078 21.6307L115.805 19.7498C116.683 19.2482 117.448 19.1855 118.1 19.5617L121.373 21.4426ZM119.078 8.84032V21.6307L115.805 19.7498V6.95938L119.078 8.84032ZM119.078 21.6307L110.952 26.3331L107.68 24.4521L115.805 19.7498L119.078 21.6307ZM121.373 4.89035C120.696 4.51416 119.931 4.57686 119.078 5.07845L107.68 11.6617L104.407 9.7808L115.805 3.19751C116.683 2.69592 117.448 2.63323 118.1 3.00941L121.373 4.89035ZM107.68 11.6617V39.4996L104.407 37.6187V9.7808L107.68 11.6617Z" fill="white"/>
<path d="M89.7551 9.7808L97.8808 5.07845C98.7335 4.57686 99.4859 4.51416 100.138 4.89035C100.815 5.26654 101.154 5.95622 101.154 6.95938V31.0354L97.8808 32.9163V25.3926L89.7551 30.0949V37.6187L86.4823 39.4996V15.4236C86.4823 14.7465 86.6328 14.0443 86.9337 13.317C87.2347 12.5646 87.636 11.8749 88.1375 11.2479C88.6391 10.5959 89.1783 10.1068 89.7551 9.7808ZM97.8808 21.6307V8.84032L89.7551 13.5427V26.3331L97.8808 21.6307ZM97.8808 25.3926V32.9163L94.608 31.0354V23.5117L97.8808 25.3926ZM97.8808 8.84032V21.6307L94.608 19.7498V6.95938L97.8808 8.84032ZM97.8808 21.6307L89.7551 26.3331L86.4823 24.4521L94.608 19.7498L97.8808 21.6307ZM100.176 4.89035C99.4984 4.51416 98.7335 4.57686 97.8808 5.07845L89.7551 9.7808C89.1783 10.1068 88.6391 10.5959 88.1375 11.2479C87.636 11.8749 87.2347 12.5646 86.9337 13.317C86.6328 14.0443 86.4823 14.7465 86.4823 15.4236V39.4996L83.2095 37.6187V13.5427C83.2095 12.8655 83.36 12.1633 83.6609 11.436C83.9619 10.6836 84.3631 9.99397 84.8647 9.36699C85.3663 8.71493 85.9055 8.22589 86.4823 7.89986L94.608 3.19751C95.4857 2.69592 96.2507 2.63323 96.9027 3.00941L100.176 4.89035Z" fill="white"/>
<path d="M73.0639 13.5428L67.1954 16.9284V13.1666L82.1677 4.51424V8.27612L76.2991 11.6618V37.6188L73.0639 39.4997V13.5428ZM73.0639 13.5428V39.4997L69.7911 37.6188V11.6618L73.0639 13.5428ZM82.1677 4.51424L67.1954 13.1666L63.9225 11.2856L78.9324 2.6333L82.1677 4.51424ZM67.1954 13.1666V16.9284L63.9225 15.0475V11.2856L67.1954 13.1666Z" fill="white"/>
<path d="M51.536 32.3521V13.5428L45.6675 16.9284V13.1666L60.6397 4.51424V8.27612L54.7712 11.6618V30.4712L60.6397 27.0855V30.8474L45.6675 39.4997V35.7378L51.536 32.3521ZM51.536 32.3521L45.6675 35.7378L42.3946 33.8569L48.2632 30.4712L51.536 32.3521ZM45.6675 35.7378V39.4997L42.3946 37.6188V33.8569L45.6675 35.7378ZM60.6397 27.0855L54.7712 30.4712L51.536 28.5903L57.4045 25.2046L60.6397 27.0855ZM51.536 13.5428V32.3521L48.2632 30.4712V11.6618L51.536 13.5428ZM60.6397 4.51424L45.6675 13.1666L42.3946 11.2856L57.4045 2.6333L60.6397 4.51424ZM45.6675 13.1666V16.9284L42.3946 15.0475V11.2856L45.6675 13.1666Z" fill="white"/>
<path d="M35.8686 34.4211L27.7429 39.1234C26.8652 39.625 26.1002 39.6877 25.4482 39.3115C24.7961 38.9353 24.4701 38.2456 24.4701 37.2425V13.1665L27.7429 11.2855V35.3615L35.8686 30.6592V6.58317L39.1414 4.70223V28.7783C39.1414 29.4303 38.9784 30.1325 38.6524 30.8849C38.3514 31.6373 37.9502 32.3395 37.4486 32.9916C36.9721 33.6185 36.4454 34.095 35.8686 34.4211ZM39.1414 4.70223L35.8686 6.58317L32.5958 4.70223L35.8686 2.82129L39.1414 4.70223ZM35.8686 6.58317V30.6592L32.5958 28.7783V4.70223L35.8686 6.58317ZM35.8686 30.6592L27.7429 35.3615L24.4701 33.4806L32.5958 28.7783L35.8686 30.6592ZM27.7429 11.2855L24.4701 13.1665L21.1973 11.2855L24.4701 9.40458L27.7429 11.2855ZM24.4701 13.1665V37.2425C24.4701 38.2456 24.7961 38.9353 25.4482 39.3115L22.1754 37.4306C21.5233 37.0544 21.1973 36.3647 21.1973 35.3615V11.2855L24.4701 13.1665Z" fill="white"/>
<path d="M6.54567 9.7808L14.6713 5.07845C15.524 4.57686 16.2764 4.51416 16.9285 4.89035C17.6056 5.26654 17.9442 5.95622 17.9442 6.95939V10.7213L14.6713 12.6022V8.84032L6.54567 13.5427V35.3616L14.6713 30.6592V21.6307L9.78088 24.4521V20.6902L17.9442 15.9879V32.5402L14.6713 34.4211V30.6592C14.6713 31.3113 14.5209 32.0135 14.2199 32.7659C13.919 33.5183 13.5177 34.2205 13.0161 34.8725C12.5145 35.4995 11.9753 35.976 11.3985 36.302L6.54567 39.1234C5.6679 39.625 4.90298 39.6877 4.25092 39.3115C3.59886 38.9354 3.27283 38.2457 3.27283 37.2425V15.4236C3.27283 14.7465 3.42331 14.0443 3.72426 13.317C4.02521 12.5646 4.42648 11.8749 4.92806 11.2479C5.42965 10.5959 5.96885 10.1068 6.54567 9.7808ZM14.6713 30.6592V34.4211L11.3985 32.5402V28.7783L14.6713 30.6592ZM14.6713 21.6307V30.6592L11.3985 28.7783V19.7498L14.6713 21.6307ZM14.6713 8.84032V12.6022L11.3985 10.7213V6.95939L14.6713 8.84032ZM17.9442 15.9879L9.78088 20.6902L6.54567 18.8093L14.6713 14.107L17.9442 15.9879ZM9.78088 20.6902V24.4521L6.54567 22.5712V18.8093L9.78088 20.6902ZM14.6713 30.6592L6.54567 35.3616L3.27283 33.4806L11.3985 28.7783L14.6713 30.6592ZM16.9661 4.89035C16.2889 4.51416 15.524 4.57686 14.6713 5.07845L6.54567 9.7808C5.96885 10.1068 5.42965 10.5959 4.92806 11.2479C4.42648 11.8749 4.02521 12.5646 3.72426 13.317C3.42331 14.0443 3.27283 14.7465 3.27283 15.4236V37.2425C3.27283 38.2457 3.59886 38.9354 4.25092 39.3115L0.978089 37.4306C0.32603 37.0544 0 36.3647 0 35.3616V13.5427C0 12.8655 0.150475 12.1633 0.451425 11.436C0.752376 10.6836 1.15364 9.99397 1.65523 9.36699C2.15681 8.71493 2.69601 8.22589 3.27283 7.89986L11.3985 3.19751C12.2763 2.69592 13.0412 2.63323 13.6932 3.00941L16.9661 4.89035Z" fill="white"/>
</svg>
