<svg width="13" height="12" viewBox="0 0 13 12" fill="none" xmlns="http://www.w3.org/2000/svg">
<path fill-rule="evenodd" clip-rule="evenodd" d="M9.87848 5.22896C9.87848 5.74402 9.77836 6.25403 9.58384 6.72988C9.38932 7.20573 9.10421 7.6381 8.74479 8.0023C8.38537 8.3665 7.95867 8.65541 7.48906 8.85251C7.01945 9.04961 6.51613 9.15106 6.00783 9.15106C5.49953 9.15106 4.9962 9.04961 4.5266 8.85251C4.05699 8.65541 3.63029 8.3665 3.27087 8.0023C2.91144 7.6381 2.62633 7.20573 2.43182 6.72988C2.2373 6.25403 2.13718 5.74402 2.13718 5.22896C2.13718 4.18875 2.54498 3.19115 3.27087 2.45561C3.99676 1.72007 4.98127 1.30685 6.00783 1.30685C7.03439 1.30685 8.0189 1.72007 8.74479 2.45561C9.47068 3.19115 9.87848 4.18875 9.87848 5.22896ZM9.17316 9.36024C8.13615 10.176 6.8313 10.5607 5.52426 10.4359C4.21721 10.3111 3.00622 9.68628 2.13783 8.6886C1.26943 7.69092 0.808904 6.39539 0.850005 5.06575C0.891107 3.73612 1.43074 2.47233 2.35906 1.53168C3.28737 0.591024 4.53458 0.0442135 5.84677 0.0025659C7.15896 -0.0390817 8.43749 0.427565 9.42208 1.30751C10.4067 2.18745 11.0233 3.41453 11.1465 4.73896C11.2696 6.06338 10.89 7.38557 10.0849 8.43637L12.4847 10.8681C12.5481 10.9279 12.5989 11.0001 12.6342 11.0803C12.6695 11.1605 12.6884 11.247 12.6899 11.3348C12.6915 11.4226 12.6755 11.5097 12.6431 11.5911C12.6106 11.6725 12.5623 11.7465 12.5011 11.8085C12.4398 11.8706 12.3669 11.9195 12.2865 11.9524C12.2062 11.9853 12.1202 12.0014 12.0336 11.9999C11.9469 11.9983 11.8615 11.9791 11.7824 11.9434C11.7032 11.9077 11.632 11.8562 11.573 11.7919L9.17316 9.36024Z" fill="black"/>
</svg>
