<svg width="138" height="53" viewBox="0 0 138 53" fill="none" xmlns="http://www.w3.org/2000/svg">
<rect width="138" height="53" rx="10" fill="#F9F5CB"/>
<path d="M92.2065 32.5605C91.4155 32.9707 90.4316 33.1758 89.2549 33.1758C87.7314 33.1758 86.5107 32.6948 85.5928 31.7329C84.6748 30.771 84.2158 29.5088 84.2158 27.9463C84.2158 26.2666 84.731 24.9092 85.7612 23.874C86.7964 22.8389 88.1025 22.3213 89.6797 22.3213C90.6953 22.3213 91.5376 22.4653 92.2065 22.7534V24.4819C91.4985 24.062 90.7173 23.8521 89.8628 23.8521C88.7251 23.8521 87.8022 24.2158 87.0942 24.9434C86.3911 25.6709 86.0396 26.6426 86.0396 27.8584C86.0396 29.0156 86.3691 29.9385 87.0283 30.627C87.6875 31.3105 88.5542 31.6523 89.6284 31.6523C90.6196 31.6523 91.479 31.418 92.2065 30.9492V32.5605ZM94.1987 33V22.4971H100.329V23.9839H95.9419V26.855H97.9487C99.0229 26.855 99.8579 27.1089 100.454 27.6167C101.054 28.1245 101.354 28.8447 101.354 29.7773C101.354 30.7734 101.035 31.5596 100.395 32.1357C99.7603 32.7119 98.8936 33 97.7949 33H94.1987ZM95.9419 28.2393V31.6084H97.5166C98.1562 31.6084 98.6494 31.457 98.9961 31.1543C99.3428 30.8516 99.5161 30.4292 99.5161 29.8872C99.5161 28.7886 98.8594 28.2393 97.5459 28.2393H95.9419ZM111.726 33H109.975V24.0571H104.995V33H103.251V22.4971H111.726V33Z" fill="black"/>
<path d="M29.9754 24.0865V28.9135M29.9754 24.0865L25 16.0262M29.9754 24.0865L34.1604 26.5095M48.475 18.4833L44.29 16.0594M48.475 34.5385L44.29 32.1145V36.9425M25 16.0262V36.9738L38.9735 29.1744M25 16.0262L39.3146 24.0846M39.3146 29.3623V45M39.3146 45L58 34.5707M39.3146 45L44.291 36.9416L48.476 34.5375L58 34.5707M58 34.5707L43.6773 26.5104M43.6773 26.5104L58 18.5165M43.6773 26.5104L39.3146 24.0846M43.6773 26.5104L44.291 20.8874M58 18.5165L39.3146 8M58 18.5165L48.476 18.4824L44.291 20.8874M39.3146 8L44.291 16.0575M39.3146 8V24.0846M34.1604 26.5095L29.9754 28.9126L25 36.9719M34.1604 26.5095L44.291 32.1136M44.291 16.0584V20.8874M44.291 20.8874L39.3146 24.0836" stroke="black" stroke-width="2" stroke-linecap="round" stroke-linejoin="round"/>
</svg>
