<svg width="41" height="29" viewBox="0 0 41 29" fill="none" xmlns="http://www.w3.org/2000/svg">
<path d="M16.4 20.7143L27.0395 14.5L16.4 8.28571V20.7143ZM40.098 4.495C40.3645 5.46857 40.549 6.77357 40.672 8.43071C40.8155 10.0879 40.877 11.5171 40.877 12.76L41 14.5C41 19.0364 40.672 22.3714 40.098 24.505C39.5855 26.3693 38.3965 27.5707 36.5515 28.0886C35.588 28.3579 33.825 28.5443 31.119 28.6686C28.454 28.8136 26.0145 28.8757 23.7595 28.8757L20.5 29C11.9105 29 6.56 28.6686 4.4485 28.0886C2.6035 27.5707 1.4145 26.3693 0.902 24.505C0.6355 23.5314 0.451 22.2264 0.328 20.5693C0.1845 18.9121 0.123 17.4829 0.123 16.24L0 14.5C0 9.96357 0.328 6.62857 0.902 4.495C1.4145 2.63071 2.6035 1.42929 4.4485 0.911429C5.412 0.642143 7.175 0.455714 9.881 0.331428C12.546 0.186428 14.9855 0.124286 17.2405 0.124286L20.5 0C29.0895 0 34.44 0.331429 36.5515 0.911429C38.3965 1.42929 39.5855 2.63071 40.098 4.495Z" fill="black"/>
</svg>
